<svg width="32" height="36" viewBox="0 0 32 36" fill="none" xmlns="http://www.w3.org/2000/svg">
<path d="M16.2368 36C17.3675 36 18.4518 35.6007 19.2513 34.8901C20.0508 34.1794 20.5 33.2156 20.5 32.2105H11.9737C11.9737 33.2156 12.4228 34.1794 13.2223 34.8901C14.0218 35.6007 15.1062 36 16.2368 36Z" fill="#FFB02E"/>
<path d="M16.2368 9.47368C14.9295 9.47368 13.8684 8.30769 13.8684 6.87102V2.60266C13.8684 1.16599 14.9295 0 16.2368 0C17.5442 0 18.6053 1.16599 18.6053 2.60266V6.87102C18.6053 8.30769 17.5442 9.47368 16.2368 9.47368Z" fill="#FFB02E"/>
<path d="M29.7368 25.156C28.6 24.2411 27.9131 22.8747 27.6289 21.4251L25.5803 10.886C24.6684 6.21651 20.6658 2.85399 16 2.84211C11.3342 2.85399 7.33157 6.21651 6.41973 10.886L4.37104 21.4251C4.08683 22.8747 3.39999 24.2411 2.26315 25.156C1.25657 25.9758 0.605255 27.2234 0.605255 28.6492V30.1106C0.605255 30.7522 1.11447 31.2632 1.73026 31.2632H30.2697C30.8974 31.2632 31.3947 30.7522 31.3947 30.1106V28.6492C31.3947 27.2234 30.7434 25.9758 29.7368 25.156Z" fill="url(#paint0_linear_483_979)"/>
<defs>
<linearGradient id="paint0_linear_483_979" x1="7.47368" y1="9" x2="27.3684" y2="18.4737" gradientUnits="userSpaceOnUse">
<stop stop-color="#FFEC83"/>
<stop offset="0.504817" stop-color="#F9C73C"/>
<stop offset="1" stop-color="#FDC200"/>
</linearGradient>
</defs>
</svg>
