<svg width="24" height="28" viewBox="0 0 24 28" fill="none" xmlns="http://www.w3.org/2000/svg">
<path d="M8.57143 24.0714C8.57143 23.598 8.95518 23.2143 9.42857 23.2143C9.90196 23.2143 10.2857 23.598 10.2857 24.0714C10.2857 25.0123 11.0591 25.7857 12 25.7857C12.9409 25.7857 13.7143 25.0123 13.7143 24.0714C13.7143 23.598 14.098 23.2143 14.5714 23.2143C15.0448 23.2143 15.4286 23.598 15.4286 24.0714C15.4286 25.9591 13.8877 27.5 12 27.5C10.1123 27.5 8.57143 25.9591 8.57143 24.0714Z" fill="#686666"/>
<path d="M12 0.5C10.9352 0.5 10.0714 1.36376 10.0714 2.42857V2.45953C7.1444 3.21074 4.83219 5.61726 4.22446 8.72942L2.74173 16.3571C2.56444 17.2607 2.14775 18.0493 1.51975 18.5546L1.51584 18.5578C0.596958 19.3062 0 20.449 0 21.7508V22.8087C0 23.7321 0.738066 24.5 1.67143 24.5H8.68439C11.1429 24.5 12 24.5 12 24.5C12 24.5 13.2857 24.5 15.3156 24.5H22.3286C23.2763 24.5 24 23.7261 24 22.8087V21.7508C24 20.449 23.403 19.3062 22.4842 18.5578L22.4802 18.5546C21.8522 18.0492 21.4356 17.2612 21.2584 16.3575L19.7757 8.73014C19.1679 5.61798 16.8556 3.21074 13.9286 2.45953V2.42857C13.9286 1.36376 13.0648 0.5 12 0.5ZM11.5356 3.92857H12.4644L12.9378 4.00329C15.4801 4.40451 17.5721 6.39024 18.093 9.05797L19.576 16.6869C19.8101 17.8806 20.3871 19.0697 21.4034 19.8885C21.9406 20.3269 22.2857 20.9895 22.2857 21.7508V22.7857L13.7143 22.7857C13.7143 22.7857 13.7143 22.7857 12 22.7857C11.0704 22.7857 10.2857 22.7857 10.2857 22.7857L1.71429 22.7857V21.7508C1.71429 20.9895 2.05941 20.3269 2.59664 19.8885C3.61289 19.0696 4.18994 17.8806 4.42399 16.6869L5.90711 9.05725C6.42829 6.38988 8.52009 4.40447 11.0622 4.00329L11.5356 3.92857Z" fill="#686666"/>
</svg>
