<svg width="32" height="32" viewBox="0 0 32 32" fill="none" xmlns="http://www.w3.org/2000/svg">
<rect width="32" height="32" rx="16" fill="#F8BD00"/>
<path fill-rule="evenodd" clip-rule="evenodd" d="M14.225 23.5953H18.2987C21.1596 23.5953 22.5905 23.5953 23.6181 22.9215C24.0616 22.6311 24.4435 22.256 24.742 21.8179C25.4285 20.8095 25.4285 19.4043 25.4285 16.5956C25.4285 13.787 25.4285 12.3817 24.742 11.3734C24.4435 10.9352 24.0616 10.5602 23.6181 10.2697C22.9581 9.83612 22.1313 9.6812 20.8654 9.6262C20.2613 9.6262 19.7415 9.17704 19.6233 8.59495C19.5329 8.16858 19.2981 7.78649 18.9586 7.51324C18.619 7.24 18.1955 7.09236 17.7597 7.09529H14.764C13.8584 7.09529 13.0783 7.7232 12.9005 8.59495C12.7822 9.17704 12.2625 9.6262 11.6584 9.6262C10.3934 9.6812 9.56655 9.83704 8.90563 10.2697C8.46246 10.5603 8.08088 10.9353 7.78271 11.3734C7.09521 12.3817 7.09521 13.786 7.09521 16.5956C7.09521 19.4052 7.09521 20.8086 7.7818 21.8179C8.0788 22.2542 8.46013 22.6291 8.90563 22.9215C9.93321 23.5953 11.3641 23.5953 14.225 23.5953ZM16.2619 12.8455C14.1526 12.8455 12.4421 14.524 12.4421 16.5947C12.4421 18.6655 14.1535 20.3466 16.2619 20.3466C18.3702 20.3466 20.0816 18.6673 20.0816 16.5965C20.0816 14.5258 18.3702 12.8455 16.2619 12.8455ZM16.2619 14.3452C14.9969 14.3452 13.9702 15.3526 13.9702 16.5956C13.9702 17.8377 14.9969 18.8451 16.2619 18.8451C17.5269 18.8451 18.5535 17.8377 18.5535 16.5956C18.5535 15.3535 17.5269 14.3452 16.2619 14.3452ZM20.5904 13.5954C20.5904 13.181 20.9323 12.8455 21.3549 12.8455H22.3724C22.794 12.8455 23.1369 13.181 23.1369 13.5954C23.1349 13.796 23.0534 13.9877 22.9103 14.1283C22.7671 14.2689 22.574 14.3469 22.3733 14.3452H21.3549C21.2554 14.3462 21.1568 14.3275 21.0646 14.2904C20.9723 14.2532 20.8883 14.1983 20.8173 14.1286C20.7463 14.059 20.6898 13.9761 20.6508 13.8846C20.6119 13.7931 20.5913 13.6948 20.5904 13.5954Z" fill="white"/>
</svg>
