<svg width="37" height="33" viewBox="0 0 37 33" fill="none" xmlns="http://www.w3.org/2000/svg">
<path d="M26.833 1.5C29.1766 1.5 31.0661 2.27363 32.6045 3.81152C34.1426 5.34989 34.9169 7.23939 34.917 9.58301C34.917 10.7738 34.7077 11.9527 34.2822 13.126V13.127C33.9187 14.13 33.2916 15.2821 32.3633 16.5879L31.9463 17.1572C30.7875 18.698 29.1961 20.4875 27.1543 22.5293C25.1078 24.5758 22.4984 27.0332 19.3213 29.9043L18.208 30.9043L17.0957 29.9043C13.9311 27.0333 11.3237 24.5752 9.26953 22.5273C7.22197 20.4857 5.62782 18.6971 4.46973 17.1572L4.05371 16.5879C3.12538 15.2821 2.49827 14.13 2.13477 13.127V13.126L1.98535 12.6855C1.6603 11.6577 1.5 10.6249 1.5 9.58301C1.50007 7.23969 2.27381 5.35076 3.81152 3.8125C5.34989 2.2744 7.23939 1.50007 9.58301 1.5C11.0117 1.5 12.3537 1.83185 13.6289 2.50195C14.9048 3.17244 16.0322 4.14231 17.0088 5.44238L18.208 7.03906L19.4072 5.44238C20.3837 4.14241 21.5114 3.17244 22.7871 2.50195C24.0623 1.83182 25.4044 1.50005 26.833 1.5Z" stroke="#FD657E" stroke-width="3"/>
</svg>
