<svg width="44" height="40" viewBox="0 0 44 40" fill="none" xmlns="http://www.w3.org/2000/svg">
<path d="M12.6595 1.61048C14.8741 -1.34235 16.5969 0.447041 17.5813 1.61048C20.3618 4.89648 25.6909 12.1173 28.3528 18.6798C29.0883 20.1616 29.5826 21.7838 29.7835 23.4962C29.8248 23.7513 29.8599 24.0031 29.886 24.2511C29.9161 24.5371 29.9139 24.8059 29.8831 25.0587C29.8838 25.1175 29.886 25.1766 29.886 25.2355C29.8859 33.39 23.2749 40.0001 15.1204 40.0001C6.96604 39.9999 0.3559 33.3898 0.355743 25.2355C0.355743 22.6597 1.01565 20.238 2.17508 18.13C3.89383 14.2019 7.10593 8.65613 12.6595 1.61048Z" fill="url(#paint0_linear_483_958)"/>
<path d="M12.259 29.7652C12.0663 29.7652 11.902 29.6972 11.766 29.5612C11.63 29.4252 11.562 29.2609 11.562 29.0682V18.4092C11.562 18.2165 11.63 18.0579 11.766 17.9332C11.902 17.7972 12.0663 17.7292 12.259 17.7292H15.234C15.8686 17.7292 16.4353 17.8765 16.934 18.1712C17.4326 18.4545 17.8293 18.8399 18.124 19.3272C18.43 19.8145 18.583 20.3699 18.583 20.9932C18.583 21.4239 18.4923 21.8319 18.311 22.2172C18.1296 22.5912 17.8576 22.9255 17.495 23.2202C18.073 23.4582 18.5263 23.8322 18.855 24.3422C19.1836 24.8522 19.348 25.4529 19.348 26.1442C19.348 26.8129 19.1836 27.4249 18.855 27.9802C18.5376 28.5242 18.1013 28.9605 17.546 29.2892C17.002 29.6065 16.3956 29.7652 15.727 29.7652H12.259ZM13.381 28.0482H15.642C16.186 28.0482 16.6336 27.8725 16.985 27.5212C17.3363 27.1585 17.512 26.7052 17.512 26.1612C17.512 25.6285 17.3306 25.1922 16.968 24.8522C16.6166 24.5009 16.1746 24.3252 15.642 24.3252H13.381V28.0482ZM13.381 22.6762H15.064C15.3813 22.6762 15.6646 22.6025 15.914 22.4552C16.1746 22.3079 16.3786 22.1095 16.526 21.8602C16.6846 21.6109 16.764 21.3389 16.764 21.0442C16.764 20.5909 16.5996 20.2112 16.271 19.9052C15.9536 19.5879 15.5626 19.4292 15.098 19.4292H13.381V22.6762Z" fill="#202020"/>
<line x1="31.4785" y1="15.3963" x2="35.4159" y2="11.4589" stroke="#515151"/>
<line x1="32.1856" y1="21.3023" x2="36.123" y2="25.2397" stroke="#515151"/>
<circle cx="28.879" cy="18.7029" r="4.92176" fill="url(#paint1_radial_483_958)"/>
<circle cx="38.7225" cy="27.562" r="4.92176" fill="url(#paint2_radial_483_958)"/>
<circle cx="38.7225" cy="7.875" r="4.92176" fill="url(#paint3_radial_483_958)"/>
<defs>
<linearGradient id="paint0_linear_483_958" x1="15.1316" y1="-0.000305176" x2="15.1316" y2="40.0001" gradientUnits="userSpaceOnUse">
<stop stop-color="#9DE3D1"/>
<stop offset="0.9999" stop-color="#4ED5B3"/>
</linearGradient>
<radialGradient id="paint1_radial_483_958" cx="0" cy="0" r="1" gradientUnits="userSpaceOnUse" gradientTransform="translate(27.8946 16.242) rotate(82.4054) scale(7.44797 5.91614)">
<stop stop-color="#FFEE80"/>
<stop offset="1" stop-color="#E9D241"/>
</radialGradient>
<radialGradient id="paint2_radial_483_958" cx="0" cy="0" r="1" gradientUnits="userSpaceOnUse" gradientTransform="translate(38.2303 25.5933) rotate(85.9144) scale(6.90801)">
<stop stop-color="#B5B4EE"/>
<stop offset="1" stop-color="#8886D7"/>
</radialGradient>
<radialGradient id="paint3_radial_483_958" cx="0" cy="0" r="1" gradientUnits="userSpaceOnUse" gradientTransform="translate(37.7381 5.9063) rotate(83.2902) scale(8.42469 9.64278)">
<stop stop-color="#FFAD95"/>
<stop offset="1" stop-color="#FF7E58"/>
</radialGradient>
</defs>
</svg>
