<svg width="214" height="27" viewBox="0 0 214 27" fill="none" xmlns="http://www.w3.org/2000/svg">
<path d="M11.77 26L0.5 0.974999H6.59L15.865 21.625H16.32L25.595 0.974999H31.685L20.415 26H11.77ZM32.8969 26V7.975H37.9719V26H32.8969ZM32.8619 5V1.045H38.0069V5H32.8619ZM50.4978 26C48.4678 26 46.9744 25.4983 46.0178 24.495C45.0611 23.4683 44.5828 22.1267 44.5828 20.47V12H39.3678V7.975H44.5828V2.445H49.6578V7.975H57.1478V12H49.6578V19.84C49.6578 21.2633 50.3578 21.975 51.7578 21.975H58.1278V26H50.4978ZM64.8319 26C62.9419 26 61.4952 25.5217 60.4919 24.565C59.4886 23.6083 58.9869 22.2433 58.9869 20.47C58.9869 18.72 59.4886 17.3667 60.4919 16.41C61.4952 15.4533 62.9419 14.975 64.8319 14.975H78.2719V14.135C78.2719 12.7117 77.5719 12 76.1719 12H61.3319V7.975H77.5019C79.6253 7.975 81.1303 8.465 82.0169 9.445C82.9036 10.4017 83.3469 11.755 83.3469 13.505V26H64.8319ZM65.7419 21.975H78.2719V19H65.7419C65.2986 19 64.9486 19.14 64.6919 19.42C64.4586 19.6767 64.3419 20.0267 64.3419 20.47C64.3419 20.9133 64.4586 21.275 64.6919 21.555C64.9486 21.835 65.2986 21.975 65.7419 21.975ZM99.9148 26.175C95.2948 26.175 91.7598 25.1133 89.3098 22.99C86.8598 20.8433 85.6348 17.67 85.6348 13.47C85.6348 9.29333 86.8598 6.13167 89.3098 3.985C91.7598 1.83833 95.2948 0.776666 99.9148 0.799999L112.515 0.869998V5.35H100.3C97.2664 5.35 95.0148 5.99167 93.5448 7.275C92.0748 8.55833 91.3398 10.6233 91.3398 13.47C91.3398 16.3167 92.0748 18.3933 93.5448 19.7C95.0148 20.9833 97.2664 21.625 100.3 21.625H112.865V26.175H99.9148ZM115.136 26V0.974999H120.211V7.975H130.851C132.904 7.975 134.398 8.48833 135.331 9.515C136.288 10.5183 136.766 11.8483 136.766 13.505V26H131.691V14.1C131.691 12.7 130.991 12 129.591 12H120.211V26H115.136ZM148.969 26.175C145.842 26.175 143.404 25.405 141.654 23.865C139.904 22.3017 139.029 20.015 139.029 17.005C139.029 13.9717 139.904 11.685 141.654 10.145C143.404 8.58167 145.842 7.8 148.969 7.8H157.719C159.772 7.8 161.336 8.29 162.409 9.27C163.506 10.2267 164.054 11.6033 164.054 13.4C164.054 17.0633 161.942 18.895 157.719 18.895H144.489C144.979 21.065 146.472 22.15 148.969 22.15H163.144V26.175H148.969ZM148.969 11.825C146.566 11.825 145.084 12.84 144.524 14.87H157.474C157.941 14.87 158.302 14.73 158.559 14.45C158.839 14.17 158.979 13.785 158.979 13.295C158.979 12.315 158.477 11.825 157.474 11.825H148.969ZM175.749 26.175C172.623 26.175 170.184 25.405 168.434 23.865C166.684 22.3017 165.809 20.015 165.809 17.005C165.809 13.9717 166.684 11.685 168.434 10.145C170.184 8.58167 172.623 7.8 175.749 7.8H187.474V11.825H175.749C174.233 11.825 173.066 12.245 172.249 13.085C171.456 13.925 171.059 15.2317 171.059 17.005C171.059 18.755 171.456 20.05 172.249 20.89C173.066 21.73 174.233 22.15 175.749 22.15H187.824V26.175H175.749ZM189.735 26V0.974999H194.81V7.975H206.92C208.973 7.975 210.537 8.465 211.61 9.445C212.707 10.4017 213.255 11.7783 213.255 13.575C213.255 16.515 211.855 18.265 209.055 18.825L213.325 26H207.62L203.49 19.035H194.81V26H189.735ZM206.675 11.965H194.81V15.045H206.675C207.142 15.045 207.503 14.905 207.76 14.625C208.04 14.345 208.18 13.96 208.18 13.47C208.18 12.4667 207.678 11.965 206.675 11.965Z" fill="black"/>
</svg>
