<svg width="50" height="50" viewBox="0 0 50 50" fill="none" xmlns="http://www.w3.org/2000/svg">
<rect width="50" height="50" rx="25" fill="#D9D9D9"/>
<path d="M34.5637 33.7656C34.9248 33.766 35.2721 33.9043 35.5346 34.1522C35.7972 34.4 35.9552 34.7388 35.9764 35.0993C35.9975 35.4597 35.8802 35.8147 35.6485 36.0915C35.4167 36.3684 35.088 36.5464 34.7294 36.589L34.5637 36.599H24.647C24.2859 36.5986 23.9386 36.4603 23.6761 36.2124C23.4135 35.9645 23.2555 35.6258 23.2344 35.2653C23.2132 34.9049 23.3305 34.5499 23.5622 34.273C23.794 33.9961 24.1227 33.8182 24.4813 33.7755L24.647 33.7656H34.5637ZM35.4576 13.037C35.7866 13.3658 36.0475 13.7563 36.2256 14.1861C36.4036 14.6158 36.4953 15.0764 36.4953 15.5416C36.4953 16.0068 36.4036 16.4674 36.2256 16.8972C36.0475 17.3269 35.7866 17.7174 35.4576 18.0463L20.0216 33.4823C19.8414 33.6625 19.6303 33.8089 19.3983 33.9144L14.0093 36.3638C12.8164 36.9064 11.5896 35.6781 12.1322 34.4853L14.583 29.0963C14.6881 28.8644 14.834 28.6533 15.0137 28.473L30.4497 13.037C31.1139 12.373 32.0145 12 32.9537 12C33.8928 12 34.7934 12.373 35.4576 13.037Z" fill="white"/>
</svg>
