<svg width="50" height="50" viewBox="0 0 50 50" fill="none" xmlns="http://www.w3.org/2000/svg">
<rect width="50" height="50" rx="25" fill="#D9D9D9"/>
<path fill-rule="evenodd" clip-rule="evenodd" d="M22.2569 36.7382H28.5526C32.974 36.7382 35.1854 36.7382 36.7735 35.6969C37.4589 35.248 38.0491 34.6684 38.5103 33.9912C39.5714 32.4329 39.5714 30.2612 39.5714 25.9205C39.5714 21.5798 39.5714 19.4081 38.5103 17.8497C38.0491 17.1726 37.4589 16.593 36.7735 16.1441C35.7535 15.474 34.4757 15.2346 32.5193 15.1496C31.5857 15.1496 30.7824 14.4554 30.5997 13.5558C30.46 12.8969 30.0971 12.3064 29.5724 11.8841C29.0476 11.4618 28.3932 11.2336 27.7196 11.2382H23.0899C21.6903 11.2382 20.4847 12.2086 20.2098 13.5558C20.0271 14.4554 19.2238 15.1496 18.2903 15.1496C16.3353 15.2346 15.0574 15.4754 14.036 16.1441C13.3511 16.5931 12.7614 17.1727 12.3006 17.8497C11.2381 19.4081 11.2381 21.5784 11.2381 25.9205C11.2381 30.2626 11.2381 32.4315 12.2992 33.9912C12.7582 34.6656 13.3475 35.245 14.036 35.6969C15.6241 36.7382 17.8355 36.7382 22.2569 36.7382ZM25.4048 20.1249C22.145 20.1249 19.5015 22.7188 19.5015 25.9191C19.5015 29.1193 22.1464 31.7175 25.4048 31.7175C28.6631 31.7175 31.308 29.1222 31.308 25.9219C31.308 22.7217 28.6631 20.1249 25.4048 20.1249ZM25.4048 22.4426C23.4498 22.4426 21.8631 23.9995 21.8631 25.9205C21.8631 27.8401 23.4498 29.397 25.4048 29.397C27.3598 29.397 28.9464 27.8401 28.9464 25.9205C28.9464 24.0009 27.3598 22.4426 25.4048 22.4426ZM32.0943 21.2837C32.0943 20.6434 32.6227 20.1249 33.2758 20.1249H34.8483C35.4999 20.1249 36.0298 20.6434 36.0298 21.2837C36.0268 21.5939 35.9008 21.8901 35.6795 22.1074C35.4583 22.3247 35.1598 22.4452 34.8497 22.4426H33.2758C33.1221 22.4441 32.9696 22.4153 32.8271 22.3579C32.6845 22.3004 32.5547 22.2155 32.445 22.1079C32.3353 22.0003 32.2478 21.8721 32.1877 21.7307C32.1275 21.5893 32.0957 21.4374 32.0943 21.2837Z" fill="white"/>
</svg>
