<svg width="50" height="50" viewBox="0 0 50 50" fill="none" xmlns="http://www.w3.org/2000/svg">
<rect width="50" height="50" rx="25" fill="#D9D9D9"/>
<path fill-rule="evenodd" clip-rule="evenodd" d="M15.2 12C14.0861 12 13.0178 12.4483 12.2302 13.2462C11.4425 14.044 11 15.1262 11 16.2546V30.4367C11 31.189 11.295 31.9104 11.8201 32.4423C12.3452 32.9743 13.0574 33.2731 13.8 33.2731V16.2546C13.8 15.8785 13.9475 15.5178 14.2101 15.2518C14.4726 14.9858 14.8287 14.8364 15.2 14.8364H34.8C34.8 14.0842 34.505 13.3627 33.9799 12.8308C33.4548 12.2988 32.7426 12 32 12H15.2ZM15.2 19.091C15.2 18.3388 15.495 17.6173 16.0201 17.0854C16.5452 16.5535 17.2574 16.2546 18 16.2546H36.2C36.9426 16.2546 37.6548 16.5535 38.1799 17.0854C38.705 17.6173 39 18.3388 39 19.091V35.1636C39 35.9159 38.705 36.6373 38.1799 37.1692C37.6548 37.7012 36.9426 38 36.2 38H18C17.2574 38 16.5452 37.7012 16.0201 37.1692C15.495 36.6373 15.2 35.9159 15.2 35.1636V19.091ZM36.2 19.091H18V30.2211L23.3872 24.7639C23.5497 24.5992 23.7426 24.4686 23.955 24.3795C24.1673 24.2903 24.3949 24.2445 24.6248 24.2445C24.8547 24.2445 25.0823 24.2903 25.2946 24.3795C25.507 24.4686 25.6999 24.5992 25.8624 24.7639L30.3998 29.3589L31.6374 28.1066C31.7999 27.9419 31.9928 27.8113 32.2052 27.7222C32.4175 27.6331 32.6451 27.5872 32.875 27.5872C33.1049 27.5872 33.3325 27.6331 33.5448 27.7222C33.7572 27.8113 33.9501 27.9419 34.1126 28.1066L36.2 30.2211V19.091ZM33.4 23.3457C33.4 23.9099 33.1788 24.4509 32.7849 24.8499C32.3911 25.2488 31.857 25.473 31.3 25.473C30.743 25.473 30.2089 25.2488 29.8151 24.8499C29.4212 24.4509 29.2 23.9099 29.2 23.3457C29.2 22.7815 29.4212 22.2404 29.8151 21.8414C30.2089 21.4425 30.743 21.2183 31.3 21.2183C31.857 21.2183 32.3911 21.4425 32.7849 21.8414C33.1788 22.2404 33.4 22.7815 33.4 23.3457Z" fill="white"/>
</svg>
