<svg width="18" height="18" viewBox="0 0 18 18" fill="none" xmlns="http://www.w3.org/2000/svg">
<g clip-path="url(#clip0_265_499)">
<path d="M9.88648 1.39651L5.45898 5.83051L12.27 12.4475L16.6125 8.10551L16.612 8.10501C17.0527 7.6646 17.4022 7.14155 17.6403 6.56583C17.8785 5.99012 18.0007 5.37305 18 4.75001C18 2.12701 15.873 9.66093e-06 13.25 9.62965e-06C12.6249 -0.000745688 12.0059 0.122267 11.4286 0.361952C10.8513 0.601637 10.3272 0.95325 9.88648 1.39651Z" fill="#E62523"/>
<path d="M1.2565 10.0395C0.448254 10.9132 -0.000477316 12.0598 4.37763e-07 13.25C4.22741e-07 14.5098 0.500445 15.718 1.39124 16.6088C2.28204 17.4996 3.49022 18 4.75 18C5.9895 18 7.115 17.521 7.9605 16.743L7.9675 16.75L12.27 12.4475L5.459 5.8305L1.2565 10.0395Z" fill="#FBDB5F"/>
</g>
<defs>
<clipPath id="clip0_265_499">
<rect width="18" height="18" fill="white" transform="translate(0 18) rotate(-90)"/>
</clipPath>
</defs>
</svg>
