<svg width="12" height="16" viewBox="0 0 12 16" fill="none" xmlns="http://www.w3.org/2000/svg">
<path d="M7.5 0.5H1.5C1.10218 0.5 0.720644 0.658035 0.43934 0.93934C0.158035 1.22064 0 1.60218 0 2V14C0 14.3978 0.158035 14.7794 0.43934 15.0607C0.720644 15.342 1.10218 15.5 1.5 15.5H10.5C10.8978 15.5 11.2794 15.342 11.5607 15.0607C11.842 14.7794 12 14.3978 12 14V5L7.5 0.5ZM10.5 14H1.5V2H6.75V5.75H10.5V14Z" fill="black"/>
<line x1="3" y1="8.65" x2="9" y2="8.65" stroke="black" stroke-width="0.7"/>
<line x1="3" y1="11.65" x2="9" y2="11.65" stroke="black" stroke-width="0.7"/>
</svg>
