<svg width="30" height="27" viewBox="0 0 30 27" fill="none" xmlns="http://www.w3.org/2000/svg">
<path d="M21.854 1.05469C23.8605 1.05478 25.5017 1.72249 26.8325 3.05273V3.05371C28.1634 4.38478 28.8315 6.02619 28.8315 8.0332C28.8315 9.04985 28.6529 10.0544 28.2915 11.0508C27.9356 12.0329 27.2945 13.1593 26.3374 14.4316C25.3812 15.703 24.0751 17.1705 22.4097 18.8359C20.7417 20.5039 18.6178 22.5035 16.0356 24.8369L14.853 25.8994L13.6704 24.8369C11.0986 22.5037 8.97693 20.5035 7.30322 18.835C5.63315 17.1698 4.32545 15.7025 3.36963 14.4316H3.36865C2.41156 13.1593 1.77043 12.0329 1.41455 11.0508C1.05323 10.0545 0.874529 9.0498 0.874512 8.0332C0.874512 6.15168 1.46145 4.59106 2.63135 3.30664L2.87354 3.05371C4.20459 1.72291 5.84604 1.05469 7.85303 1.05469C9.08056 1.05471 10.2361 1.34087 11.3306 1.91602C12.4254 2.49139 13.3869 3.32072 14.2134 4.4209L14.853 5.27246L15.4927 4.4209C16.3191 3.32066 17.2806 2.49142 18.3755 1.91602C19.4701 1.34077 20.6263 1.05469 21.854 1.05469Z" stroke="#202020" stroke-width="1.6"/>
</svg>
