<svg width="34" height="36" viewBox="0 0 34 36" fill="none" xmlns="http://www.w3.org/2000/svg">
<path d="M22.3457 27.5514C21.309 26.5146 21.309 24.8337 22.3457 23.7969C23.3825 22.7601 25.0635 22.7601 26.1003 23.7969L33.1367 30.8334C34.1735 31.8701 34.1735 33.5511 33.1368 34.5879C32.1 35.6247 30.419 35.6247 29.3822 34.5879L22.3457 27.5514Z" fill="url(#paint0_linear_483_954)"/>
<path d="M22.3457 27.5514C21.309 26.5146 21.309 24.8337 22.3457 23.7969C23.3825 22.7601 25.0635 22.7601 26.1003 23.7969L33.1367 30.8334C34.1735 31.8701 34.1735 33.5511 33.1368 34.5879C32.1 35.6247 30.419 35.6247 29.3822 34.5879L22.3457 27.5514Z" fill="url(#paint1_linear_483_954)"/>
<path d="M22.3457 27.5514C21.309 26.5146 21.309 24.8337 22.3457 23.7969C23.3825 22.7601 25.0635 22.7601 26.1003 23.7969L33.1367 30.8334C34.1735 31.8701 34.1735 33.5511 33.1368 34.5879C32.1 35.6247 30.419 35.6247 29.3822 34.5879L22.3457 27.5514Z" fill="url(#paint2_radial_483_954)"/>
<path d="M22.3457 27.5514C21.309 26.5146 21.309 24.8337 22.3457 23.7969C23.3825 22.7601 25.0635 22.7601 26.1003 23.7969L33.1367 30.8334C34.1735 31.8701 34.1735 33.5511 33.1368 34.5879C32.1 35.6247 30.419 35.6247 29.3822 34.5879L22.3457 27.5514Z" fill="url(#paint3_linear_483_954)"/>
<path d="M22.3457 27.5514C21.309 26.5146 21.309 24.8337 22.3457 23.7969C23.3825 22.7601 25.0635 22.7601 26.1003 23.7969L33.1367 30.8334C34.1735 31.8701 34.1735 33.5511 33.1368 34.5879C32.1 35.6247 30.419 35.6247 29.3822 34.5879L22.3457 27.5514Z" fill="url(#paint4_radial_483_954)"/>
<path fill-rule="evenodd" clip-rule="evenodd" d="M13.6013 27.6658C21.0658 27.6658 27.1169 21.6146 27.1169 14.1501C27.1169 6.68566 21.0658 0.634521 13.6013 0.634521C6.1368 0.634521 0.0856628 6.68566 0.0856628 14.1501C0.0856628 21.6146 6.1368 27.6658 13.6013 27.6658ZM13.6013 25.4783C19.8576 25.4783 24.9294 20.4065 24.9294 14.1501C24.9294 7.89381 19.8576 2.82202 13.6013 2.82202C7.34496 2.82202 2.27316 7.89381 2.27316 14.1501C2.27316 20.4065 7.34496 25.4783 13.6013 25.4783Z" fill="url(#paint5_linear_483_954)"/>
<path fill-rule="evenodd" clip-rule="evenodd" d="M13.6014 27.3601C20.8971 27.3601 26.8114 21.4458 26.8114 14.1501C26.8114 6.85445 20.8971 0.940155 13.6014 0.940155C6.30575 0.940155 0.391449 6.85445 0.391449 14.1501C0.391449 21.4458 6.30575 27.3601 13.6014 27.3601ZM13.6014 25.2221C19.7163 25.2221 24.6734 20.265 24.6734 14.1501C24.6734 8.03528 19.7163 3.07819 13.6014 3.07819C7.48658 3.07819 2.52948 8.03528 2.52948 14.1501C2.52948 20.265 7.48658 25.2221 13.6014 25.2221Z" fill="url(#paint6_linear_483_954)"/>
<path fill-rule="evenodd" clip-rule="evenodd" d="M13.6014 27.3601C20.8971 27.3601 26.8114 21.4458 26.8114 14.1501C26.8114 6.85445 20.8971 0.940155 13.6014 0.940155C6.30575 0.940155 0.391449 6.85445 0.391449 14.1501C0.391449 21.4458 6.30575 27.3601 13.6014 27.3601ZM13.6014 25.2221C19.7163 25.2221 24.6734 20.265 24.6734 14.1501C24.6734 8.03528 19.7163 3.07819 13.6014 3.07819C7.48658 3.07819 2.52948 8.03528 2.52948 14.1501C2.52948 20.265 7.48658 25.2221 13.6014 25.2221Z" fill="url(#paint7_radial_483_954)"/>
<path d="M25.2203 14.1502C25.2203 20.5671 20.0183 25.769 13.6015 25.769C7.18456 25.769 1.98264 20.5671 1.98264 14.1502C1.98264 7.73326 7.18456 2.53134 13.6015 2.53134C20.0183 2.53134 25.2203 7.73326 25.2203 14.1502Z" fill="url(#paint8_linear_483_954)"/>
<path d="M24.9294 14.1501C24.9294 20.4065 19.8576 25.4783 13.6013 25.4783C7.34496 25.4783 2.27316 20.4065 2.27316 14.1501C2.27316 7.89381 7.34496 2.82202 13.6013 2.82202C19.8576 2.82202 24.9294 7.89381 24.9294 14.1501Z" fill="#D6F0FF"/>
<path d="M24.9294 14.1501C24.9294 20.4065 19.8576 25.4783 13.6013 25.4783C7.34496 25.4783 2.27316 20.4065 2.27316 14.1501C2.27316 7.89381 7.34496 2.82202 13.6013 2.82202C19.8576 2.82202 24.9294 7.89381 24.9294 14.1501Z" fill="url(#paint9_radial_483_954)"/>
<defs>
<linearGradient id="paint0_linear_483_954" x1="23.0338" y1="32.986" x2="21.4891" y2="4.96277" gradientUnits="userSpaceOnUse">
<stop stop-color="#A0659C"/>
<stop offset="1" stop-color="#895792"/>
</linearGradient>
<linearGradient id="paint1_linear_483_954" x1="3.48553" y1="4.15626" x2="14.1867" y2="14.4848" gradientUnits="userSpaceOnUse">
<stop stop-color="#6C3B74"/>
<stop offset="1" stop-color="#845590" stop-opacity="0"/>
</linearGradient>
<radialGradient id="paint2_radial_483_954" cx="0" cy="0" r="1" gradientUnits="userSpaceOnUse" gradientTransform="translate(18.6441 18.4688) rotate(46.658) scale(33.3148 10.6562)">
<stop offset="0.565842" stop-color="#655B6E" stop-opacity="0"/>
<stop offset="1" stop-color="#655B6E"/>
</radialGradient>
<linearGradient id="paint3_linear_483_954" x1="27.6716" y1="18.115" x2="20.3153" y2="25.0408" gradientUnits="userSpaceOnUse">
<stop offset="0.115168" stop-color="#703D7A"/>
<stop offset="1" stop-color="#703D7A" stop-opacity="0"/>
</linearGradient>
<radialGradient id="paint4_radial_483_954" cx="0" cy="0" r="1" gradientUnits="userSpaceOnUse" gradientTransform="translate(1.82191 2.29295) rotate(47.1341) scale(8.0992 10.6383)">
<stop stop-color="#2F1A3D"/>
<stop offset="1" stop-color="#532D64" stop-opacity="0"/>
</radialGradient>
<linearGradient id="paint5_linear_483_954" x1="17" y1="0.634521" x2="17" y2="35.3655" gradientUnits="userSpaceOnUse">
<stop offset="0.378529" stop-color="#344A7D"/>
<stop offset="0.633316" stop-color="#785790"/>
<stop offset="0.837142" stop-color="#785790"/>
<stop offset="1" stop-color="#9872A2"/>
</linearGradient>
<linearGradient id="paint6_linear_483_954" x1="17" y1="0.634521" x2="17" y2="35.3655" gradientUnits="userSpaceOnUse">
<stop stop-color="#475890"/>
<stop offset="1" stop-color="#7A4D87"/>
</linearGradient>
<radialGradient id="paint7_radial_483_954" cx="0" cy="0" r="1" gradientUnits="userSpaceOnUse" gradientTransform="translate(17 8.8339) rotate(-90.0001) scale(8.42148 15.255)">
<stop offset="0.704268" stop-color="#566298"/>
<stop offset="0.786585" stop-color="#566298" stop-opacity="0"/>
</radialGradient>
<linearGradient id="paint8_linear_483_954" x1="17" y1="0.634521" x2="17" y2="35.3655" gradientUnits="userSpaceOnUse">
<stop stop-color="#204083"/>
<stop offset="1" stop-color="#523573"/>
</linearGradient>
<radialGradient id="paint9_radial_483_954" cx="0" cy="0" r="1" gradientUnits="userSpaceOnUse" gradientTransform="translate(17 18.988) rotate(90) scale(21.0781 20.5305)">
<stop offset="0.759634" stop-color="#33A2F3" stop-opacity="0"/>
<stop offset="1" stop-color="#77C2F9"/>
</radialGradient>
</defs>
</svg>
