<svg width="104" height="104" viewBox="0 0 104 104" fill="none" xmlns="http://www.w3.org/2000/svg">
<path d="M104 52C104 80.7188 80.7188 104 52 104C23.2812 104 0 80.7188 0 52C0 23.2812 23.2812 0 52 0C80.7188 0 104 23.2812 104 52Z" fill="#D9D9D9"/>
<path d="M69.3333 37.5556C69.3333 47.1285 61.5729 54.8889 52 54.8889C42.4271 54.8889 34.6667 47.1285 34.6667 37.5556C34.6667 27.9826 42.4271 20.2222 52 20.2222C61.5729 20.2222 69.3333 27.9826 69.3333 37.5556Z" fill="#F4F4F4"/>
<path d="M52 57.7778C69.7566 57.7778 85.4298 67.1753 94.8114 81.5124C85.4299 95.0956 69.7571 104 52 104C34.2423 104 18.5672 95.0963 9.18576 81.5124C18.5673 67.1746 34.2429 57.7778 52 57.7778Z" fill="#F4F4F4"/>
</svg>
