<svg width="18" height="17" viewBox="0 0 18 17" fill="none" xmlns="http://www.w3.org/2000/svg">
<path d="M3.26154 6.50507C3.26154 4.98317 3.86611 3.5236 4.94226 2.44745C6.01841 1.3713 7.47798 0.766724 8.99988 0.766724C10.5218 0.766724 11.9814 1.3713 13.0575 2.44745C14.1337 3.5236 14.7382 4.98317 14.7382 6.50507V7.35353C16.1286 7.55273 17.1975 8.74876 17.1975 10.194V10.3989C17.1975 11.854 15.9425 13.1296 14.4661 13.0615C13.8594 14.7994 12.3166 15.9709 10.6517 16.2676C10.2664 16.4086 9.81063 16.3422 9.40977 16.3422C9.08364 16.3422 8.77088 16.2127 8.54028 15.9821C8.30967 15.7515 8.18012 15.4387 8.18012 15.1126C8.18012 14.7865 8.30967 14.4737 8.54028 14.2431C8.77088 14.0125 9.08364 13.8829 9.40977 13.8829C10.0598 13.8829 10.7796 13.7887 11.219 14.3822C12.2814 13.8764 13.0987 12.8082 13.0987 11.4237V6.50507C13.0987 5.418 12.6669 4.37545 11.8982 3.60677C11.1295 2.83809 10.087 2.40625 8.99988 2.40625C7.91281 2.40625 6.87026 2.83809 6.10158 3.60677C5.3329 4.37545 4.90107 5.418 4.90107 6.50507V11.6286C4.90107 12.0091 4.74992 12.374 4.48088 12.643C4.21185 12.912 3.84695 13.0632 3.46648 13.0632C2.75988 13.0632 2.08222 12.7825 1.58258 12.2828C1.08294 11.7832 0.802246 11.1055 0.802246 10.3989V10.194C0.802069 9.50394 1.0506 8.83693 1.50229 8.31524C1.95397 7.79354 2.57855 7.45211 3.26154 7.35353V6.50507Z" fill="black"/>
</svg>
