<svg width="30" height="30" viewBox="0 0 30 30" fill="none" xmlns="http://www.w3.org/2000/svg">
<path fill-rule="evenodd" clip-rule="evenodd" d="M17.976 0.813C18.1065 1.0665 18.1395 1.392 18.204 2.043C18.327 3.273 18.3885 3.888 18.6465 4.227C18.8072 4.43748 19.0209 4.60165 19.2656 4.70282C19.5104 4.80399 19.7776 4.83856 20.04 4.803C20.46 4.7475 20.94 4.356 21.897 3.573C22.4025 3.1575 22.656 2.9505 22.9275 2.8635C23.2733 2.75301 23.6474 2.77166 23.9805 2.916C24.243 3.03 24.4755 3.261 24.936 3.723L26.277 5.064C26.739 5.526 26.97 5.757 27.084 6.0195C27.2283 6.35258 27.247 6.72671 27.1365 7.0725C27.0495 7.344 26.8425 7.5975 26.4285 8.103C25.644 9.0615 25.2525 9.54 25.1955 9.9615C25.1604 10.2238 25.1953 10.4908 25.2967 10.7353C25.3982 10.9798 25.5625 11.1931 25.773 11.3535C26.1105 11.6115 26.727 11.673 27.9585 11.796C28.608 11.8605 28.9335 11.8935 29.1885 12.024C29.5102 12.1908 29.7606 12.4684 29.8935 12.8055C30 13.071 30 13.398 30 14.052V15.948C30 16.602 30 16.929 29.895 17.193C29.7617 17.5312 29.5101 17.8094 29.187 17.976C28.9335 18.1065 28.608 18.1395 27.957 18.204C26.727 18.327 26.112 18.3885 25.773 18.6465C25.5625 18.8072 25.3983 19.0209 25.2972 19.2656C25.196 19.5104 25.1614 19.7776 25.197 20.04C25.254 20.46 25.6455 20.94 26.4285 21.897C26.8425 22.4025 27.0495 22.6545 27.1365 22.9275C27.247 23.2733 27.2283 23.6474 27.084 23.9805C26.97 24.243 26.739 24.474 26.277 24.936L24.936 26.2755C24.474 26.739 24.243 26.97 23.9805 27.0825C23.6474 27.2268 23.2733 27.2455 22.9275 27.135C22.656 27.048 22.4025 26.841 21.897 26.427C20.9385 25.644 20.46 25.2525 20.04 25.197C19.7776 25.1614 19.5104 25.196 19.2656 25.2972C19.0209 25.3983 18.8072 25.5625 18.6465 25.773C18.3885 26.1105 18.327 26.7255 18.204 27.957C18.1395 28.608 18.1065 28.9335 17.976 29.187C17.8098 29.5098 17.5321 29.7614 17.1945 29.895C16.929 30 16.602 30 15.948 30H14.052C13.398 30 13.071 30 12.807 29.895C12.4688 29.7617 12.1906 29.5101 12.024 29.187C11.8935 28.9335 11.8605 28.608 11.796 27.957C11.673 26.727 11.6115 26.112 11.3535 25.773C11.1929 25.5628 10.9795 25.3987 10.7351 25.2976C10.4906 25.1964 10.2237 25.1617 9.9615 25.197C9.54 25.2525 9.0615 25.644 8.103 26.427C7.5975 26.8425 7.344 27.0495 7.0725 27.1365C6.72671 27.247 6.35258 27.2283 6.0195 27.084C5.757 26.97 5.5245 26.739 5.064 26.277L3.723 24.936C3.261 24.474 3.03 24.243 2.916 23.9805C2.77166 23.6474 2.75301 23.2733 2.8635 22.9275C2.9505 22.656 3.1575 22.4025 3.5715 21.897C4.356 20.9385 4.7475 20.46 4.803 20.0385C4.83828 19.7763 4.80358 19.5094 4.70242 19.2649C4.60126 19.0205 4.43724 18.8071 4.227 18.6465C3.8895 18.3885 3.273 18.327 2.0415 18.204C1.392 18.1395 1.0665 18.1065 0.8115 17.976C0.489821 17.8092 0.239394 17.5316 0.1065 17.1945C1.45286e-07 16.929 0 16.602 0 15.948V14.052C0 13.398 -1.00583e-07 13.071 0.105 12.807C0.238331 12.4688 0.489922 12.1906 0.813 12.024C1.0665 11.8935 1.392 11.8605 2.043 11.796C3.273 11.673 3.8895 11.6115 4.227 11.3535C4.43751 11.1931 4.60183 10.9798 4.70325 10.7353C4.80468 10.4908 4.83961 10.2238 4.8045 9.9615C4.7475 9.54 4.3545 9.0615 3.5715 8.1015C3.1575 7.596 2.9505 7.344 2.8635 7.071C2.75301 6.72521 2.77166 6.35108 2.916 6.018C3.03 5.757 3.261 5.5245 3.723 5.0625L5.064 3.723C5.526 3.261 5.757 3.0285 6.0195 2.916C6.35258 2.77166 6.72671 2.75301 7.0725 2.8635C7.344 2.9505 7.5975 3.1575 8.103 3.5715C9.0615 4.3545 9.54 4.746 9.96 4.803C10.2228 4.83867 10.4904 4.80401 10.7355 4.70256C10.9805 4.60111 11.1943 4.4365 11.355 4.2255C11.61 3.888 11.673 3.273 11.796 2.0415C11.8605 1.392 11.8935 1.0665 12.024 0.8115C12.1905 0.489257 12.4681 0.238265 12.8055 0.105C13.071 -1.00583e-07 13.398 0 14.052 0H15.948C16.602 0 16.929 -1.00583e-07 17.193 0.105C17.5312 0.238331 17.8094 0.489922 17.976 0.813ZM15 21C16.5913 21 18.1174 20.3679 19.2426 19.2426C20.3679 18.1174 21 16.5913 21 15C21 13.4087 20.3679 11.8826 19.2426 10.7574C18.1174 9.63214 16.5913 9 15 9C13.4087 9 11.8826 9.63214 10.7574 10.7574C9.63214 11.8826 9 13.4087 9 15C9 16.5913 9.63214 18.1174 10.7574 19.2426C11.8826 20.3679 13.4087 21 15 21Z" fill="#626262"/>
</svg>
