<svg width="36" height="36" viewBox="0 0 36 36" fill="none" xmlns="http://www.w3.org/2000/svg">
<path d="M36 18C36 27.9411 27.9411 36 18 36C8.05887 36 0 27.9411 0 18C0 8.05887 8.05887 0 18 0C27.9411 0 36 8.05887 36 18Z" fill="#D9D9D9"/>
<path d="M24 13C24 16.3137 21.3137 19 18 19C14.6863 19 12 16.3137 12 13C12 9.68629 14.6863 7 18 7C21.3137 7 24 9.68629 24 13Z" fill="white"/>
<path d="M18 20C24.1465 20 29.5719 23.253 32.8193 28.2158C29.5719 32.9177 24.1467 36 18 36C11.8531 36 6.42709 32.918 3.17969 28.2158C6.42713 23.2527 11.8533 20 18 20Z" fill="white"/>
<path d="M18 20.4004C23.9059 20.4004 29.1364 23.4773 32.332 28.209C30.6554 30.5585 28.4182 32.479 25.8135 33.7725C25.6764 33.8405 25.5385 33.9071 25.3994 33.9717C25.0435 34.1369 24.6809 34.29 24.3125 34.4316C24.1852 34.4806 24.0574 34.5282 23.9287 34.5742C23.8923 34.5873 23.8559 34.6005 23.8193 34.6133C23.7037 34.6538 23.5874 34.6923 23.4707 34.7305C23.4267 34.7449 23.383 34.7604 23.3389 34.7744C23.2055 34.8168 23.0713 34.8572 22.9365 34.8965C22.9097 34.9043 22.8833 34.9132 22.8564 34.9209C22.6956 34.967 22.5337 35.0102 22.3711 35.0518C22.336 35.0607 22.3008 35.0694 22.2656 35.0781C22.1424 35.1088 22.0187 35.138 21.8945 35.166C21.8289 35.1808 21.7631 35.1949 21.6973 35.209C21.6063 35.2284 21.5153 35.2476 21.4238 35.2656C21.352 35.2798 21.2801 35.2934 21.208 35.3066C21.0825 35.3298 20.9565 35.3516 20.8301 35.3721C20.8001 35.3769 20.7702 35.382 20.7402 35.3867C20.5698 35.4134 20.3986 35.4382 20.2266 35.46C20.1993 35.4634 20.1719 35.4664 20.1445 35.4697C20.0064 35.4865 19.8677 35.5011 19.7285 35.5146C19.6739 35.52 19.6192 35.5245 19.5645 35.5293C19.4502 35.5394 19.3356 35.5488 19.2207 35.5566C19.1537 35.5612 19.0867 35.5655 19.0195 35.5693C18.8809 35.5773 18.742 35.5842 18.6025 35.5889C18.5846 35.5895 18.5667 35.5903 18.5488 35.5908C18.3666 35.5964 18.1836 35.5996 18 35.5996C17.8161 35.5996 17.6328 35.5964 17.4502 35.5908C17.4323 35.5903 17.4144 35.5895 17.3965 35.5889C17.2571 35.5842 17.1181 35.5773 16.9795 35.5693C16.9123 35.5655 16.8453 35.5612 16.7783 35.5566C16.6634 35.5488 16.5489 35.5394 16.4346 35.5293C16.3798 35.5245 16.3251 35.52 16.2705 35.5146C16.1314 35.5011 15.9927 35.4865 15.8545 35.4697C15.8271 35.4664 15.7998 35.4634 15.7725 35.46C15.6004 35.4382 15.4293 35.4134 15.2588 35.3867C15.2288 35.382 15.1989 35.3769 15.1689 35.3721C15.0425 35.3516 14.9165 35.3298 14.791 35.3066C14.7189 35.2934 14.647 35.2798 14.5752 35.2656C14.4838 35.2476 14.3927 35.2284 14.3018 35.209C14.2356 35.1948 14.1694 35.1809 14.1035 35.166C13.9901 35.1404 13.8773 35.1128 13.7646 35.085C13.7159 35.0729 13.6668 35.0623 13.6182 35.0498C13.4588 35.009 13.3002 34.9661 13.1426 34.9209C13.1135 34.9126 13.0847 34.903 13.0557 34.8945C12.9307 34.858 12.8064 34.8204 12.6826 34.7812C12.6238 34.7626 12.5654 34.7429 12.5068 34.7236C12.3986 34.6881 12.2909 34.6518 12.1836 34.6143C12.1458 34.601 12.108 34.5877 12.0703 34.5742C11.9417 34.5282 11.8138 34.4806 11.6865 34.4316C11.3069 34.2857 10.9338 34.1271 10.5674 33.9561C10.4397 33.8965 10.3125 33.836 10.1865 33.7734C9.68485 33.5244 9.19677 33.2521 8.72363 32.958C8.60621 32.885 8.48958 32.811 8.37402 32.7354C8.34554 32.7167 8.31743 32.6975 8.28906 32.6787C8.17514 32.6032 8.06224 32.5263 7.9502 32.4482C7.63708 32.23 7.33102 32.0023 7.0332 31.7646C6.91345 31.6691 6.7949 31.5722 6.67773 31.4736C5.54186 30.5179 4.53003 29.4199 3.66602 28.209C6.86156 23.4768 12.0937 20.4004 18 20.4004ZM18 0.400391C27.7202 0.400391 35.5996 8.27979 35.5996 18C35.5996 21.4993 34.578 24.7595 32.8174 27.5C29.4712 22.7147 24.085 19.5996 18 19.5996C11.9151 19.5996 6.52794 22.7138 3.18164 27.499C1.42143 24.7588 0.400391 21.4988 0.400391 18C0.400391 8.27979 8.27979 0.400391 18 0.400391ZM23.5996 13C23.5996 16.0928 21.0928 18.5996 18 18.5996C14.9072 18.5996 12.4004 16.0928 12.4004 13C12.4004 9.90721 14.9072 7.40039 18 7.40039C21.0928 7.40039 23.5996 9.90721 23.5996 13ZM24.4004 13C24.4004 9.46538 21.5346 6.59961 18 6.59961C14.4654 6.59961 11.5996 9.46538 11.5996 13C11.5996 16.5346 14.4654 19.4004 18 19.4004C21.5346 19.4004 24.4004 16.5346 24.4004 13Z" stroke="#D9D9D9" stroke-width="0.8"/>
</svg>
