<svg width="24" height="24" viewBox="0 0 24 24" fill="none" xmlns="http://www.w3.org/2000/svg">
<path d="M11.9951 0.769531C12.4673 0.769577 12.8695 0.894821 13.2256 1.13867L22.4561 7.49805L22.4658 7.50488C22.7105 7.66813 22.8949 7.87024 23.0293 8.11621L23.0303 8.11816C23.1654 8.36342 23.2305 8.61414 23.2305 8.88086V22.4404C23.2304 22.6174 23.1687 22.7819 22.9688 22.9639C22.7681 23.1464 22.5524 23.2304 22.2861 23.2305H16.4844C16.3183 23.2304 16.1989 23.1951 16.1035 23.1357L16.0156 23.0684C15.9097 22.9712 15.8691 22.8775 15.8691 22.7393V15.2998C15.8691 14.7252 15.6442 14.2203 15.2197 13.834C14.7986 13.4507 14.2791 13.2695 13.7139 13.2695H10.2861C9.79148 13.2695 9.33132 13.408 8.94238 13.7002L8.7832 13.832C8.35725 14.218 8.13094 14.724 8.13086 15.2998V22.7412C8.13084 22.8798 8.09005 22.9722 7.98438 23.0684C7.87483 23.168 7.73707 23.2304 7.51758 23.2305H1.71387C1.44756 23.2304 1.23193 23.1464 1.03125 22.9639C0.831261 22.7819 0.76962 22.6174 0.769531 22.4404V8.88086C0.769531 8.61414 0.834577 8.36342 0.969727 8.11816C1.10555 7.87182 1.29067 7.6695 1.53516 7.50586L1.54395 7.49902L10.7754 1.1377L10.7783 1.13574C11.1255 0.894589 11.5227 0.769531 11.9951 0.769531Z" stroke="black" stroke-width="1.54"/>
</svg>
