<svg width="18" height="18" viewBox="0 0 18 18" fill="none" xmlns="http://www.w3.org/2000/svg">
<path d="M18 9C18 7.21997 17.4722 5.47991 16.4832 3.99987C15.4943 2.51983 14.0887 1.36628 12.4442 0.685088C10.7996 0.00389957 8.99002 -0.17433 7.24419 0.172937C5.49836 0.520203 3.89472 1.37737 2.63604 2.63604C1.37737 3.89472 0.520203 5.49836 0.172937 7.24419C-0.17433 8.99002 0.00389957 10.7996 0.685088 12.4442C1.36628 14.0887 2.51983 15.4943 3.99987 16.4832C5.47991 17.4722 7.21997 18 9 18C11.387 18 13.6761 17.0518 15.364 15.364C17.0518 13.6761 18 11.387 18 9ZM12.5325 11.46C12.6722 11.6005 12.7506 11.7906 12.7506 11.9888C12.7506 12.1869 12.6722 12.377 12.5325 12.5175C12.4628 12.5878 12.3798 12.6436 12.2884 12.6817C12.197 12.7197 12.099 12.7394 12 12.7394C11.901 12.7394 11.803 12.7197 11.7116 12.6817C11.6202 12.6436 11.5372 12.5878 11.4675 12.5175L9.135 10.185C9.0991 10.1523 9.0523 10.1342 9.00375 10.1342C8.95521 10.1342 8.90841 10.1523 8.8725 10.185L6.54 12.5175C6.39653 12.6404 6.21197 12.7046 6.02321 12.6973C5.83446 12.69 5.6554 12.6117 5.52183 12.4782C5.38826 12.3446 5.31001 12.1656 5.30272 11.9768C5.29543 11.788 5.35963 11.6035 5.4825 11.46L7.815 9.1275C7.84768 9.0916 7.86579 9.0448 7.86579 8.99625C7.86579 8.94771 7.84768 8.90091 7.815 8.865L5.4825 6.5325C5.41221 6.46278 5.35641 6.37983 5.31834 6.28844C5.28026 6.19704 5.26065 6.09901 5.26065 6C5.26065 5.901 5.28026 5.80297 5.31834 5.71157C5.35641 5.62018 5.41221 5.53723 5.4825 5.4675C5.62303 5.32782 5.81312 5.24941 6.01125 5.24941C6.20939 5.24941 6.39948 5.32782 6.54 5.4675L8.8725 7.8C8.88934 7.81794 8.90967 7.83224 8.93224 7.84201C8.95482 7.85178 8.97916 7.85682 9.00375 7.85682C9.02835 7.85682 9.05269 7.85178 9.07526 7.84201C9.09784 7.83224 9.11817 7.81794 9.135 7.8L11.4675 5.4675C11.5374 5.39757 11.6205 5.3421 11.7118 5.30426C11.8032 5.26641 11.9011 5.24693 12 5.24693C12.0989 5.24693 12.1968 5.26641 12.2882 5.30426C12.3796 5.3421 12.4626 5.39757 12.5325 5.4675C12.6024 5.53743 12.6579 5.62045 12.6957 5.71182C12.7336 5.80318 12.7531 5.90111 12.7531 6C12.7531 6.0989 12.7336 6.19683 12.6957 6.28819C12.6579 6.37956 12.6024 6.46257 12.5325 6.5325L10.2 8.865C10.1821 8.88184 10.1678 8.90217 10.158 8.92474C10.1482 8.94732 10.1432 8.97165 10.1432 8.99625C10.1432 9.02085 10.1482 9.04519 10.158 9.06776C10.1678 9.09034 10.1821 9.11067 10.2 9.1275L12.5325 11.46Z" fill="#C7C7C7"/>
</svg>
